<svg xmlns="http://www.w3.org/2000/svg"  viewBox="0 0 50 50" width="500px" height="500px"><path d="M 9 4 C 6.24 4 4 6.24 4 9 L 4 41 C 4 43.76 6.24 46 9 46 L 41 46 C 43.76 46 46 43.76 46 41 L 46 9 C 46 6.24 43.76 4 41 4 L 9 4 z M 17.169922 7.7792969 C 17.549922 7.7792969 17.910078 7.9896094 18.080078 8.3496094 C 18.150078 8.4896094 18.179688 8.6392969 18.179688 8.7792969 C 18.179688 9.1492969 17.969375 9.5096875 17.609375 9.6796875 C 17.469375 9.7496875 17.319688 9.7792969 17.179688 9.7792969 C 16.809687 9.7792969 16.449297 9.5807031 16.279297 9.2207031 C 16.039297 8.7207031 16.240234 8.1208594 16.740234 7.8808594 C 16.880234 7.8108594 17.029922 7.7792969 17.169922 7.7792969 z M 32.830078 7.7792969 C 32.970078 7.7792969 33.119766 7.8108594 33.259766 7.8808594 C 33.619766 8.0508594 33.820312 8.4092969 33.820312 8.7792969 C 33.820312 8.9292969 33.790703 9.0807031 33.720703 9.2207031 C 33.550703 9.5807031 33.190313 9.7792969 32.820312 9.7792969 C 32.680312 9.7792969 32.530625 9.7496875 32.390625 9.6796875 C 32.030625 9.5096875 31.820312 9.1492969 31.820312 8.7792969 C 31.820312 8.6392969 31.849922 8.4896094 31.919922 8.3496094 C 32.089922 7.9896094 32.450078 7.7792969 32.830078 7.7792969 z M 13.769531 9.9296875 C 14.059531 9.9296875 14.350781 10.060547 14.550781 10.310547 C 14.700781 10.490547 14.769531 10.709687 14.769531 10.929688 C 14.769531 11.229688 14.640625 11.520938 14.390625 11.710938 C 14.210625 11.860938 13.989531 11.929687 13.769531 11.929688 C 13.479531 11.929688 13.190234 11.800547 12.990234 11.560547 C 12.640234 11.120547 12.710625 10.500391 13.140625 10.150391 C 13.330625 10.000391 13.549531 9.9296875 13.769531 9.9296875 z M 36.230469 9.9296875 C 36.450469 9.9296875 36.669375 10.000391 36.859375 10.150391 C 37.109375 10.350391 37.230469 10.639688 37.230469 10.929688 C 37.230469 11.149688 37.159766 11.370547 37.009766 11.560547 C 36.809766 11.800547 36.520469 11.929688 36.230469 11.929688 C 36.010469 11.929688 35.789375 11.860937 35.609375 11.710938 C 35.359375 11.520938 35.230469 11.229687 35.230469 10.929688 C 35.230469 10.709688 35.299219 10.490547 35.449219 10.310547 C 35.649219 10.060547 35.940469 9.9296875 36.230469 9.9296875 z M 25 10 C 33.27 10 40 16.73 40 25 C 40 33.27 33.27 40 25 40 C 16.73 40 10 33.27 10 25 C 10 16.73 16.73 10 25 10 z M 10.919922 12.779297 C 11.139922 12.779297 11.360781 12.85 11.550781 13 C 11.800781 13.2 11.929688 13.489297 11.929688 13.779297 C 11.929688 13.999297 11.850938 14.220391 11.710938 14.400391 C 11.510938 14.650391 11.219922 14.779297 10.919922 14.779297 C 10.699922 14.779297 10.480781 14.710547 10.300781 14.560547 C 9.8707812 14.220547 9.800625 13.590156 10.140625 13.160156 C 10.340625 12.910156 10.629922 12.779297 10.919922 12.779297 z M 39.080078 12.779297 C 39.370078 12.779297 39.659375 12.910156 39.859375 13.160156 C 39.999375 13.340156 40.080078 13.559297 40.080078 13.779297 C 40.080078 14.069297 39.949219 14.360547 39.699219 14.560547 C 39.519219 14.710547 39.300078 14.779297 39.080078 14.779297 C 38.780078 14.779297 38.489063 14.650391 38.289062 14.400391 C 38.149062 14.220391 38.070312 13.999297 38.070312 13.779297 C 38.070312 13.489297 38.199219 13.2 38.449219 13 C 38.639219 12.85 38.860078 12.779297 39.080078 12.779297 z M 24.646484 16.001953 C 23.688906 15.938242 22.811953 16.516641 22.470703 17.400391 L 17.380859 30.990234 C 17.200859 31.480234 17.560078 32 18.080078 32 L 19.539062 32 C 19.684062 32 19.825625 31.968203 19.953125 31.908203 C 20.080625 31.848203 20.194062 31.760391 20.289062 31.650391 C 22.039062 29.650391 24.639688 28.069219 26.929688 26.949219 L 28.75 31.380859 C 28.8625 31.658359 29.099062 31.867422 29.378906 31.955078 C 29.472188 31.984297 29.569922 32 29.669922 32 L 30.919922 32 C 31.049922 32 31.169375 31.966562 31.273438 31.910156 C 31.585625 31.740938 31.754141 31.357734 31.619141 30.990234 L 29.650391 25.75 C 30.950391 25.23 31.839141 24.960938 31.869141 24.960938 C 32.669141 24.750937 33.159219 23.940859 32.949219 23.130859 C 32.749219 22.330859 31.940625 21.849062 31.140625 22.039062 C 31.020625 22.069063 30.010312 22.339375 28.570312 22.859375 L 26.560547 17.509766 C 26.310547 16.819766 25.770547 16.260312 25.060547 16.070312 C 24.921797 16.034063 24.783281 16.011055 24.646484 16.001953 z M 8.7792969 16.189453 C 8.9192969 16.189453 9.0709375 16.219062 9.2109375 16.289062 C 9.5709375 16.459063 9.7792969 16.819219 9.7792969 17.199219 C 9.7792969 17.339219 9.7496875 17.490859 9.6796875 17.630859 C 9.5096875 17.980859 9.1492969 18.189453 8.7792969 18.189453 C 8.6292969 18.189453 8.4798437 18.159844 8.3398438 18.089844 C 7.8398438 17.849844 7.6408594 17.249766 7.8808594 16.759766 C 8.0508594 16.399766 8.4092969 16.189453 8.7792969 16.189453 z M 41.220703 16.189453 C 41.590703 16.189453 41.949141 16.399766 42.119141 16.759766 C 42.189141 16.899766 42.220703 17.049219 42.220703 17.199219 C 42.220703 17.559219 42.020156 17.919844 41.660156 18.089844 C 41.520156 18.159844 41.370703 18.189453 41.220703 18.189453 C 40.850703 18.189453 40.490312 17.980859 40.320312 17.630859 C 40.250312 17.490859 40.220703 17.339219 40.220703 17.199219 C 40.220703 16.819219 40.429062 16.459063 40.789062 16.289062 C 40.929063 16.219062 41.080703 16.189453 41.220703 16.189453 z M 24.5 22.039062 C 24.74 22.039062 24.979844 22.169687 25.089844 22.429688 L 25.75 24.050781 C 25.225 24.300781 24.684375 24.577109 24.140625 24.880859 C 23.596875 25.184609 23.049766 25.514141 22.509766 25.869141 L 23.910156 22.429688 C 24.020156 22.169688 24.26 22.039062 24.5 22.039062 z M 8.7792969 31.810547 C 9.1492969 31.810547 9.5096875 32.019141 9.6796875 32.369141 C 9.7496875 32.509141 9.7792969 32.660781 9.7792969 32.800781 C 9.7792969 33.180781 9.5709375 33.540937 9.2109375 33.710938 C 9.0709375 33.780938 8.9192969 33.810547 8.7792969 33.810547 C 8.4092969 33.810547 8.0508594 33.600234 7.8808594 33.240234 C 7.8108594 33.100234 7.7792969 32.950781 7.7792969 32.800781 C 7.7792969 32.440781 7.9798438 32.080156 8.3398438 31.910156 C 8.4798438 31.840156 8.6292969 31.810547 8.7792969 31.810547 z M 41.220703 31.810547 C 41.370703 31.810547 41.520156 31.840156 41.660156 31.910156 C 42.160156 32.150156 42.359141 32.750234 42.119141 33.240234 C 41.949141 33.600234 41.590703 33.810547 41.220703 33.810547 C 41.080703 33.810547 40.929062 33.780937 40.789062 33.710938 C 40.429063 33.540937 40.220703 33.180781 40.220703 32.800781 C 40.220703 32.660781 40.250313 32.509141 40.320312 32.369141 C 40.490313 32.019141 40.850703 31.810547 41.220703 31.810547 z M 10.919922 35.220703 C 11.219922 35.220703 11.510937 35.349609 11.710938 35.599609 C 11.850938 35.779609 11.929687 36.000703 11.929688 36.220703 C 11.929687 36.510703 11.800781 36.8 11.550781 37 C 11.360781 37.15 11.139922 37.220703 10.919922 37.220703 C 10.629922 37.220703 10.340625 37.089844 10.140625 36.839844 C 10.000625 36.659844 9.9199219 36.440703 9.9199219 36.220703 C 9.9199219 35.930703 10.050781 35.639453 10.300781 35.439453 C 10.480781 35.289453 10.699922 35.220703 10.919922 35.220703 z M 39.080078 35.220703 C 39.300078 35.220703 39.519219 35.289453 39.699219 35.439453 C 40.129219 35.779453 40.199375 36.409844 39.859375 36.839844 C 39.659375 37.089844 39.370078 37.220703 39.080078 37.220703 C 38.860078 37.220703 38.639219 37.15 38.449219 37 C 38.199219 36.8 38.070313 36.510703 38.070312 36.220703 C 38.070312 36.000703 38.149062 35.779609 38.289062 35.599609 C 38.489063 35.349609 38.780078 35.220703 39.080078 35.220703 z M 13.769531 38.070312 C 13.989531 38.070312 14.210625 38.139062 14.390625 38.289062 C 14.640625 38.479062 14.769531 38.770312 14.769531 39.070312 C 14.769531 39.290312 14.700781 39.509453 14.550781 39.689453 C 14.350781 39.939453 14.059531 40.070312 13.769531 40.070312 C 13.549531 40.070312 13.330625 39.999609 13.140625 39.849609 C 12.890625 39.649609 12.769531 39.360312 12.769531 39.070312 C 12.769531 38.850313 12.840234 38.629453 12.990234 38.439453 C 13.190234 38.199453 13.479531 38.070312 13.769531 38.070312 z M 36.230469 38.070312 C 36.520469 38.070312 36.809766 38.199453 37.009766 38.439453 C 37.359766 38.879453 37.289375 39.499609 36.859375 39.849609 C 36.669375 39.999609 36.450469 40.070312 36.230469 40.070312 C 35.940469 40.070312 35.649219 39.939453 35.449219 39.689453 C 35.299219 39.509453 35.230469 39.290312 35.230469 39.070312 C 35.230469 38.770313 35.359375 38.479062 35.609375 38.289062 C 35.789375 38.139063 36.010469 38.070312 36.230469 38.070312 z M 17.179688 40.220703 C 17.319688 40.220703 17.469375 40.250313 17.609375 40.320312 C 17.969375 40.490313 18.179688 40.850703 18.179688 41.220703 C 18.179688 41.360703 18.150078 41.510391 18.080078 41.650391 C 17.910078 42.010391 17.549922 42.220703 17.169922 42.220703 C 17.029922 42.220703 16.880234 42.189141 16.740234 42.119141 C 16.380234 41.949141 16.179688 41.590703 16.179688 41.220703 C 16.179688 41.070703 16.209297 40.919297 16.279297 40.779297 C 16.449297 40.419297 16.809688 40.220703 17.179688 40.220703 z M 32.820312 40.220703 C 33.190312 40.220703 33.550703 40.419297 33.720703 40.779297 C 33.960703 41.279297 33.759766 41.879141 33.259766 42.119141 C 33.119766 42.189141 32.970078 42.220703 32.830078 42.220703 C 32.450078 42.220703 32.089922 42.010391 31.919922 41.650391 C 31.849922 41.510391 31.820312 41.360703 31.820312 41.220703 C 31.820312 40.850703 32.030625 40.490312 32.390625 40.320312 C 32.530625 40.250312 32.680313 40.220703 32.820312 40.220703 z"/></svg>